<?xml version="1.0" standalone="no"?>
<!DOCTYPE svg PUBLIC "-//W3C//DTD SVG 20010904//EN"
 "http://www.w3.org/TR/2001/REC-SVG-20010904/DTD/svg10.dtd">
<svg version="1.0" xmlns="http://www.w3.org/2000/svg"
 width="500.000000pt" height="500.000000pt" viewBox="0 0 500.000000 500.000000"
 preserveAspectRatio="xMidYMid meet">
<metadata>
Created by potrace 1.14, written by Peter Selinger 2001-2017
</metadata>
<g transform="translate(0.000000,500.000000) scale(0.100000,-0.100000)"
fill="#000000" stroke="none">
<path d="M2193 4685 c-231 -30 -480 -108 -695 -217 -220 -111 -377 -226 -559
-407 -345 -345 -555 -766 -624 -1256 -19 -131 -19 -449 0 -580 89 -630 429
-1176 949 -1526 131 -88 351 -200 491 -249 533 -186 1151 -156 1652 80 674
318 1135 937 1243 1669 27 186 27 446 0 632 -143 972 -910 1727 -1883 1854
-143 18 -430 18 -574 0z m298 -612 c771 -378 1291 -1112 1400 -1978 16 -129
16 -451 0 -580 -19 -150 -58 -333 -79 -369 -38 -65 -145 -96 -211 -61 -41 21
-79 70 -87 111 -4 23 3 89 20 183 85 472 38 892 -145 1309 -216 490 -568 853
-1066 1099 -137 67 -176 91 -192 116 -54 90 -26 186 69 238 60 33 107 22 291
-68z m-264 -572 c206 -104 353 -212 514 -378 272 -282 442 -618 510 -1009 38
-220 28 -541 -23 -739 -30 -121 -170 -154 -257 -62 -32 35 -36 91 -17 215 44
276 24 539 -59 788 -44 133 -148 330 -234 445 -149 199 -369 380 -585 484 -51
24 -104 56 -119 71 -64 64 -51 177 26 224 58 36 111 27 244 -39z m-244 -563
c308 -160 549 -467 638 -813 37 -145 49 -348 29 -498 -15 -111 -35 -149 -92
-172 -51 -20 -94 -14 -130 20 -40 37 -51 81 -38 156 5 35 10 115 10 177 0 386
-218 739 -567 915 -54 28 -90 65 -100 105 -9 37 14 98 48 126 47 40 102 36
202 -16z m-202 -715 c112 -50 179 -155 179 -281 0 -147 -82 -256 -225 -297
-144 -42 -295 32 -360 178 -24 52 -27 69 -23 131 10 143 98 252 233 287 48 13
147 3 196 -18z"/>
</g>
</svg>
